<svg width="96" height="96" viewBox="0 0 96 96" fill="none" xmlns="http://www.w3.org/2000/svg">
<g clip-path="url(#clip0_103_65)">
<rect width="96" height="96" rx="48" fill="#CC3C86"/>
<path d="M60.878 51.6441L71.7314 37.3317L79.1351 42.966L68.2817 57.2853L60.878 51.6441ZM58.6566 49.995L70.1974 34.7672L62.424 28.8578L50.8832 44.0856L58.6566 49.995ZM53.9096 33.0749L50.5757 39.9222L60.422 26.9439L53.0787 21.3547L46.8186 29.6105L53.9096 33.0749ZM50.327 20.4012L42.2703 14.2703L35.0151 23.8413L44.2862 28.3698L50.327 20.4012ZM68.8103 61.1563L44.7992 43.383L43.0856 43.5405L43.8733 43.8866L54.6109 67.841L51.7572 68.2303L41.7935 45.9943L34.8838 42.9314L34.1929 37.5948L41.0006 40.9553L47.2815 40.379L50.2181 34.3519L31.0611 24.992L17.1243 44.4611L34.5867 70.8485L30.6655 96.047H62.8127V75.3389L68.9088 66.8719L70.7588 58.5797L68.8103 61.1563Z" fill="#F2F2F2"/>
</g>
<defs>
<clipPath id="clip0_103_65">
<rect width="96" height="96" rx="48" fill="white"/>
</clipPath>
</defs>
</svg>
