<svg width="50" height="50" viewBox="0 0 50 50" fill="none" xmlns="http://www.w3.org/2000/svg">
<path fill-rule="evenodd" clip-rule="evenodd" d="M25.0003 29.4208L36.0482 40.4687C36.6345 41.055 37.4296 41.3843 38.2587 41.3843C39.0877 41.3843 39.8828 41.055 40.4691 40.4687C41.0553 39.8825 41.3847 39.0874 41.3847 38.2583C41.3847 37.4293 41.0553 36.6341 40.4691 36.0479L29.417 25L40.467 13.9521C40.7571 13.6618 40.9872 13.3172 41.1442 12.938C41.3012 12.5588 41.3819 12.1524 41.3818 11.742C41.3817 11.3315 41.3008 10.9252 41.1437 10.546C40.9865 10.1669 40.7562 9.82242 40.4659 9.53228C40.1757 9.24214 39.8311 9.01201 39.4519 8.85504C39.0727 8.69807 38.6662 8.61733 38.2558 8.61743C37.8454 8.61753 37.439 8.69846 37.0599 8.85561C36.6808 9.01276 36.3363 9.24304 36.0462 9.53332L25.0003 20.5812L13.9524 9.53332C13.6643 9.23472 13.3196 8.99649 12.9384 8.83253C12.5572 8.66858 12.1472 8.58218 11.7322 8.57838C11.3173 8.57458 10.9058 8.65345 10.5216 8.8104C10.1375 8.96735 9.7885 9.19922 9.49495 9.4925C9.20139 9.78577 8.96919 10.1346 8.81188 10.5185C8.65457 10.9025 8.57531 11.314 8.57872 11.7289C8.58213 12.1439 8.66814 12.554 8.83173 12.9353C8.99533 13.3166 9.23323 13.6616 9.53156 13.95L20.5836 25L9.53365 36.05C9.23532 36.3384 8.99741 36.6833 8.83382 37.0647C8.67022 37.446 8.58421 37.8561 8.5808 38.271C8.57739 38.686 8.65666 39.0974 8.81396 39.4814C8.97127 39.8654 9.20348 40.2142 9.49703 40.5075C9.79058 40.8007 10.1396 41.0326 10.5237 41.1896C10.9078 41.3465 11.3194 41.4254 11.7343 41.4216C12.1492 41.4178 12.5593 41.3314 12.9405 41.1674C13.3216 41.0035 13.6664 40.7653 13.9545 40.4666L25.0003 29.4208Z" fill="#FDFDFD"/>
</svg>
