<svg width="65" height="65" viewBox="0 0 65 65" fill="none" xmlns="http://www.w3.org/2000/svg">
<path d="M32.5002 36.2918L19.2293 49.5627C18.7328 50.0592 18.1009 50.3075 17.3335 50.3075C16.5661 50.3075 15.9342 50.0592 15.4377 49.5627C14.9411 49.0661 14.6929 48.4342 14.6929 47.6668C14.6929 46.8995 14.9411 46.2675 15.4377 45.771L28.7085 32.5002L15.4377 19.2293C14.9411 18.7328 14.6929 18.1009 14.6929 17.3335C14.6929 16.5661 14.9411 15.9342 15.4377 15.4377C15.9342 14.9411 16.5661 14.6929 17.3335 14.6929C18.1009 14.6929 18.7328 14.9411 19.2293 15.4377L32.5002 28.7085L45.771 15.4377C46.2675 14.9411 46.8995 14.6929 47.6668 14.6929C48.4342 14.6929 49.0661 14.9411 49.5627 15.4377C50.0592 15.9342 50.3075 16.5661 50.3075 17.3335C50.3075 18.1009 50.0592 18.7328 49.5627 19.2293L36.2918 32.5002L49.5627 45.771C50.0592 46.2675 50.3075 46.8995 50.3075 47.6668C50.3075 48.4342 50.0592 49.0661 49.5627 49.5627C49.0661 50.0592 48.4342 50.3075 47.6668 50.3075C46.8995 50.3075 46.2675 50.0592 45.771 49.5627L32.5002 36.2918Z" fill="#FDFDFD"/>
</svg>
