<svg width="310" height="56" viewBox="0 0 310 56" fill="none" xmlns="http://www.w3.org/2000/svg">
<path d="M15.6929 38.3741C13.049 38.3741 10.692 37.8129 8.62175 36.6905C6.57647 35.5681 4.98015 33.9967 3.8328 31.9764C2.71039 29.9311 2.14919 27.5741 2.14919 24.9052C2.14919 22.2364 2.71039 19.8918 3.8328 17.8714C4.98015 15.8262 6.57647 14.2423 8.62175 13.1199C10.692 11.9975 13.049 11.4363 15.6929 11.4363C18.3368 11.4363 20.6814 11.9975 22.7267 13.1199C24.7969 14.2423 26.3932 15.8262 27.5157 17.8714C28.663 19.8918 29.2367 22.2364 29.2367 24.9052C29.2367 27.5741 28.663 29.9311 27.5157 31.9764C26.3932 33.9967 24.7969 35.5681 22.7267 36.6905C20.6814 37.8129 18.3368 38.3741 15.6929 38.3741ZM15.6929 35.4559C17.6634 35.4559 19.3969 35.0443 20.8934 34.2212C22.4149 33.3732 23.5997 32.151 24.4477 30.5547C25.2958 28.9584 25.7198 27.0752 25.7198 24.9052C25.7198 22.6853 25.2833 20.7897 24.4103 19.2183C23.5373 17.622 22.3276 16.4123 20.7812 15.5892C19.2348 14.7661 17.4639 14.3546 15.4685 14.3546C13.5479 14.3546 11.8393 14.7786 10.3428 15.6266C8.87118 16.4747 7.72382 17.6968 6.90072 19.2932C6.10256 20.8645 5.70349 22.7352 5.70349 24.9052C5.70349 27.0752 6.11504 28.9584 6.93814 30.5547C7.78618 32.151 8.95848 33.3732 10.455 34.2212C11.9765 35.0443 13.7225 35.4559 15.6929 35.4559ZM38.534 38C36.8878 38 35.6032 37.5635 34.6804 36.6905C33.7824 35.8175 33.3335 34.6078 33.3335 33.0614V16.6368C33.3335 15.1402 33.7824 13.9679 34.6804 13.1199C35.5783 12.2469 36.8254 11.8104 38.4217 11.8104H47.214C49.8579 11.8104 51.9031 12.434 53.3498 13.6811C54.7965 14.9282 55.5198 16.6867 55.5198 18.9564C55.5198 20.2036 55.1831 21.3135 54.5096 22.2863C53.8362 23.259 52.9382 23.9948 51.8158 24.4937V24.5311C53.0879 25.005 54.0981 25.7533 54.8463 26.7759C55.5946 27.7985 55.9688 28.9708 55.9688 30.2928C55.9688 32.6873 55.2205 34.5704 53.7239 35.9422C52.2523 37.3141 50.232 38 47.6629 38H38.534ZM47.401 23.1842C48.8227 23.1842 49.9327 22.81 50.7308 22.0618C51.5539 21.3135 51.9655 20.2784 51.9655 18.9564C51.9655 17.5347 51.5539 16.4622 50.7308 15.7389C49.9327 14.9906 48.7604 14.6165 47.214 14.6165H38.6836C38.1349 14.6165 37.6859 14.8035 37.3367 15.1777C37.0125 15.5518 36.8504 16.0506 36.8504 16.6742V23.1842H47.401ZM47.401 35.1566C49.0472 35.1566 50.2943 34.7575 51.1424 33.9593C51.9904 33.1362 52.4145 31.9265 52.4145 30.3302C52.4145 28.9584 51.9655 27.8983 51.0676 27.15C50.1696 26.3768 48.935 25.9902 47.3636 25.9902H36.8504V33.1362C36.8504 33.7348 37.0125 34.2212 37.3367 34.5954C37.6859 34.9695 38.1349 35.1566 38.6836 35.1566H47.401ZM71.9263 38.3741C69.5069 38.3741 67.262 37.9751 65.1918 37.1769C63.1465 36.3538 61.4879 35.2189 60.2158 33.7723C59.9664 33.448 59.8417 33.1362 59.8417 32.8369C59.8417 32.363 60.0537 31.9515 60.4777 31.6023C60.7521 31.3778 61.0389 31.2655 61.3382 31.2655C61.7872 31.2655 62.2486 31.5025 62.7225 31.9764C63.795 33.0739 65.117 33.9344 66.6884 34.5579C68.2847 35.1566 70.0306 35.4559 71.9263 35.4559C73.9217 35.4559 75.4681 35.0942 76.5656 34.3709C77.688 33.6226 78.2492 32.5875 78.2492 31.2655C78.2492 30.0434 77.7004 29.0581 76.603 28.3099C75.5055 27.5366 73.6224 26.8632 70.9535 26.2895C67.287 25.4664 64.6431 24.4313 63.0218 23.1842C61.4006 21.9371 60.5899 20.2909 60.5899 18.2456C60.5899 16.8737 61.0015 15.6765 61.8246 14.6539C62.6477 13.6312 63.82 12.8455 65.3415 12.2968C66.863 11.7231 68.6339 11.4363 70.6542 11.4363C72.9489 11.4363 75.0067 11.8354 76.8275 12.6335C78.6483 13.4067 79.9702 14.4668 80.7933 15.8137C80.9928 16.113 81.0926 16.4248 81.0926 16.749C81.0926 17.2479 80.8557 17.6594 80.3818 17.9837C80.1573 18.1333 79.8954 18.2082 79.5961 18.2082C79.3217 18.2082 79.0473 18.1458 78.773 18.0211C78.4986 17.8714 78.2741 17.6844 78.0995 17.4599C77.3762 16.4622 76.366 15.7014 75.069 15.1777C73.797 14.6289 72.3253 14.3546 70.6542 14.3546C68.5341 14.3546 66.9128 14.6913 65.7904 15.3647C64.693 16.0132 64.1442 16.9735 64.1442 18.2456C64.1442 19.0188 64.3687 19.6922 64.8177 20.2659C65.2666 20.8147 66.0024 21.3135 67.0251 21.7625C68.0477 22.1865 69.457 22.6105 71.2528 23.0345C75.0191 23.9075 77.7254 24.9925 79.3716 26.2895C81.0178 27.5616 81.8409 29.2203 81.8409 31.2655C81.8409 32.7122 81.4293 33.9718 80.6062 35.0443C79.8081 36.0919 78.6607 36.915 77.1642 37.5136C75.6676 38.0873 73.9217 38.3741 71.9263 38.3741ZM91.695 38C90.0738 38 88.8017 37.5635 87.8788 36.6905C86.9559 35.8175 86.4945 34.6078 86.4945 33.0614V16.6368C86.4945 15.1402 86.9435 13.9679 87.8414 13.1199C88.7393 12.2469 89.9865 11.8104 91.5828 11.8104H103.181C104.353 11.8104 104.939 12.2968 104.939 13.2696C104.939 13.6936 104.777 14.0303 104.453 14.2797C104.154 14.5292 103.73 14.6539 103.181 14.6539H91.8821C91.3084 14.6539 90.847 14.8409 90.4978 15.2151C90.1735 15.5892 90.0114 16.0881 90.0114 16.7116V23.1842H100.338C101.51 23.1842 102.096 23.6706 102.096 24.6433C102.096 25.0923 101.934 25.4415 101.61 25.6909C101.31 25.9403 100.886 26.065 100.338 26.065H90.0114V33.0988C90.0114 33.7224 90.1735 34.2212 90.4978 34.5954C90.847 34.9695 91.3084 35.1566 91.8821 35.1566H104.004C104.578 35.1566 105.014 35.2813 105.314 35.5307C105.613 35.7552 105.763 36.1044 105.763 36.5783C105.763 37.0272 105.6 37.3764 105.276 37.6259C104.977 37.8753 104.553 38 104.004 38H91.695ZM110.277 16.7864C110.277 15.265 110.726 14.0552 111.624 13.1573C112.522 12.2594 113.807 11.8104 115.478 11.8104H122.362C129.371 11.8104 132.875 14.6539 132.875 20.3407C132.875 23.0345 132.065 25.1048 130.443 26.5514C128.822 27.9731 126.465 28.684 123.372 28.684L130.107 35.5681C130.381 35.8425 130.518 36.2041 130.518 36.6531C130.518 37.152 130.319 37.5635 129.92 37.8878C129.545 38.1871 129.159 38.3367 128.76 38.3367C128.161 38.3367 127.625 38.0624 127.151 37.5136L118.695 28.7214H114.056V36.5409C114.056 37.1145 113.882 37.5635 113.532 37.8878C113.183 38.212 112.722 38.3741 112.148 38.3741C111.574 38.3741 111.113 38.212 110.764 37.8878C110.439 37.5635 110.277 37.1145 110.277 36.5409V16.7864ZM122.437 25.7283C124.756 25.7283 126.44 25.3168 127.488 24.4937C128.535 23.6706 129.059 22.2863 129.059 20.3407C129.059 18.3703 128.51 16.961 127.413 16.113C126.34 15.24 124.682 14.8035 122.437 14.8035H115.889C115.341 14.8035 114.892 14.9906 114.542 15.3647C114.218 15.7139 114.056 16.2003 114.056 16.8239V25.7283H122.437ZM148.688 38.3741C147.092 38.3741 145.807 37.7755 144.835 36.5783C143.862 35.381 142.964 33.4355 142.141 30.7417L136.828 13.4192C136.728 13.0201 136.679 12.7707 136.679 12.6709C136.679 11.8478 137.24 11.4363 138.362 11.4363C138.911 11.4363 139.322 11.5485 139.597 11.773C139.896 11.9975 140.133 12.3966 140.308 12.9703L145.546 30.4424C146.119 32.2882 146.643 33.5977 147.117 34.3709C147.591 35.1191 148.115 35.4933 148.688 35.4933C149.262 35.4933 149.786 35.1067 150.26 34.3335C150.759 33.5602 151.282 32.2632 151.831 30.4424L157.106 12.9328C157.281 12.3841 157.505 11.9975 157.78 11.773C158.079 11.5485 158.503 11.4363 159.052 11.4363C160.149 11.4363 160.698 11.8478 160.698 12.6709C160.698 12.8954 160.661 13.1448 160.586 13.4192L155.236 30.7417C154.388 33.5104 153.465 35.4808 152.467 36.6531C151.469 37.8005 150.21 38.3741 148.688 38.3741ZM165.232 38.3741C164.683 38.3741 164.246 38.2245 163.922 37.9252C163.623 37.6009 163.473 37.1644 163.473 36.6157V22.5107C163.473 19.0437 164.458 16.3375 166.429 14.392C168.399 12.4215 171.118 11.4363 174.585 11.4363C176.88 11.4363 178.863 11.8853 180.534 12.7832C182.23 13.6562 183.514 14.9282 184.387 16.5994C185.285 18.2705 185.734 20.241 185.734 22.5107V36.6157C185.734 37.1644 185.572 37.6009 185.248 37.9252C184.924 38.2245 184.487 38.3741 183.938 38.3741C183.415 38.3741 182.991 38.2245 182.666 37.9252C182.342 37.6009 182.18 37.1644 182.18 36.6157V28.9833H166.99V36.6157C166.99 37.1644 166.828 37.6009 166.504 37.9252C166.204 38.2245 165.78 38.3741 165.232 38.3741ZM182.18 26.1399V22.3985C182.18 19.8045 181.531 17.8216 180.234 16.4497C178.937 15.0529 177.054 14.3546 174.585 14.3546C172.116 14.3546 170.233 15.0405 168.936 16.4123C167.639 17.7592 166.99 19.7546 166.99 22.3985V26.1399H182.18ZM199.197 38.3741C198.648 38.3741 198.224 38.2245 197.925 37.9252C197.625 37.6009 197.476 37.1644 197.476 36.6157V14.6539H189.357C188.808 14.6539 188.372 14.5416 188.048 14.3171C187.748 14.0677 187.599 13.7185 187.599 13.2696C187.599 12.2968 188.185 11.8104 189.357 11.8104H209.149C209.698 11.8104 210.122 11.9351 210.421 12.1846C210.72 12.434 210.87 12.7957 210.87 13.2696C210.87 13.6936 210.72 14.0303 210.421 14.2797C210.122 14.5292 209.698 14.6539 209.149 14.6539H201.03V36.6157C201.03 37.1644 200.868 37.6009 200.544 37.9252C200.219 38.2245 199.77 38.3741 199.197 38.3741ZM225.305 38.3741C222.661 38.3741 220.304 37.8129 218.233 36.6905C216.188 35.5681 214.592 33.9967 213.444 31.9764C212.322 29.9311 211.761 27.5741 211.761 24.9052C211.761 22.2364 212.322 19.8918 213.444 17.8714C214.592 15.8262 216.188 14.2423 218.233 13.1199C220.304 11.9975 222.661 11.4363 225.305 11.4363C227.948 11.4363 230.293 11.9975 232.338 13.1199C234.409 14.2423 236.005 15.8262 237.127 17.8714C238.275 19.8918 238.848 22.2364 238.848 24.9052C238.848 27.5741 238.275 29.9311 237.127 31.9764C236.005 33.9967 234.409 35.5681 232.338 36.6905C230.293 37.8129 227.948 38.3741 225.305 38.3741ZM225.305 35.4559C227.275 35.4559 229.008 35.0443 230.505 34.2212C232.026 33.3732 233.211 32.151 234.059 30.5547C234.907 28.9584 235.331 27.0752 235.331 24.9052C235.331 22.6853 234.895 20.7897 234.022 19.2183C233.149 17.622 231.939 16.4123 230.393 15.5892C228.846 14.7661 227.075 14.3546 225.08 14.3546C223.159 14.3546 221.451 14.7786 219.954 15.6266C218.483 16.4747 217.335 17.6968 216.512 19.2932C215.714 20.8645 215.315 22.7352 215.315 24.9052C215.315 27.0752 215.727 28.9584 216.55 30.5547C217.398 32.151 218.57 33.3732 220.067 34.2212C221.588 35.0443 223.334 35.4559 225.305 35.4559ZM224.93 8.70509C224.481 8.48061 224.257 8.13142 224.257 7.65751C224.257 7.48291 224.294 7.30832 224.369 7.13372L226.614 1.82098C226.938 1.02282 227.425 0.623738 228.073 0.623738C228.323 0.623738 228.622 0.698565 228.971 0.848221C229.62 1.19742 229.944 1.62144 229.944 2.12029C229.944 2.36971 229.857 2.64408 229.682 2.94339L226.726 8.10647C226.427 8.58038 226.015 8.81733 225.492 8.81733C225.317 8.81733 225.13 8.77992 224.93 8.70509ZM243.381 16.7864C243.381 15.265 243.83 14.0552 244.728 13.1573C245.626 12.2594 246.91 11.8104 248.581 11.8104H255.465C262.474 11.8104 265.979 14.6539 265.979 20.3407C265.979 23.0345 265.168 25.1048 263.547 26.5514C261.926 27.9731 259.569 28.684 256.476 28.684L263.21 35.5681C263.484 35.8425 263.622 36.2041 263.622 36.6531C263.622 37.152 263.422 37.5635 263.023 37.8878C262.649 38.1871 262.262 38.3367 261.863 38.3367C261.265 38.3367 260.728 38.0624 260.254 37.5136L251.799 28.7214H247.16V36.5409C247.16 37.1145 246.985 37.5635 246.636 37.8878C246.287 38.212 245.825 38.3741 245.252 38.3741C244.678 38.3741 244.216 38.212 243.867 37.8878C243.543 37.5635 243.381 37.1145 243.381 36.5409V16.7864ZM255.54 25.7283C257.86 25.7283 259.544 25.3168 260.591 24.4937C261.639 23.6706 262.163 22.2863 262.163 20.3407C262.163 18.3703 261.614 16.961 260.516 16.113C259.444 15.24 257.785 14.8035 255.54 14.8035H248.993C248.444 14.8035 247.995 14.9906 247.646 15.3647C247.322 15.7139 247.16 16.2003 247.16 16.8239V25.7283H255.54ZM273.411 38.3741C272.887 38.3741 272.463 38.2245 272.139 37.9252C271.84 37.6009 271.69 37.1644 271.69 36.6157V13.1947C271.69 12.646 271.84 12.222 272.139 11.9227C272.463 11.5984 272.887 11.4363 273.411 11.4363C273.96 11.4363 274.396 11.5984 274.721 11.9227C275.045 12.222 275.207 12.646 275.207 13.1947V36.6157C275.207 37.1644 275.045 37.6009 274.721 37.9252C274.396 38.2245 273.96 38.3741 273.411 38.3741Z" fill="#FDFDFD"/>
<path d="M294.505 38.3741C291.861 38.3741 289.504 37.8129 287.434 36.6905C285.389 35.5681 283.792 33.9967 282.645 31.9764C281.523 29.9311 280.961 27.5741 280.961 24.9052C280.961 22.2364 281.523 19.8918 282.645 17.8714C283.792 15.8262 285.389 14.2423 287.434 13.1199C289.504 11.9975 291.861 11.4363 294.505 11.4363C297.149 11.4363 299.494 11.9975 301.539 13.1199C303.609 14.2423 305.206 15.8262 306.328 17.8714C307.475 19.8918 308.049 22.2364 308.049 24.9052C308.049 27.5741 307.475 29.9311 306.328 31.9764C305.206 33.9967 303.609 35.5681 301.539 36.6905C299.494 37.8129 297.149 38.3741 294.505 38.3741ZM294.505 35.4559C296.476 35.4559 298.209 35.0443 299.706 34.2212C301.227 33.3732 302.412 32.151 303.26 30.5547C304.108 28.9584 304.532 27.0752 304.532 24.9052C304.532 22.6853 304.096 20.7897 303.223 19.2183C302.35 17.622 301.14 16.4123 299.593 15.5892C298.047 14.7661 296.276 14.3546 294.281 14.3546C292.36 14.3546 290.652 14.7786 289.155 15.6266C287.683 16.4747 286.536 17.6968 285.713 19.2932C284.915 20.8645 284.516 22.7352 284.516 24.9052C284.516 27.0752 284.927 28.9584 285.75 30.5547C286.598 32.151 287.771 33.3732 289.267 34.2212C290.789 35.0443 292.535 35.4559 294.505 35.4559Z" fill="#CB3C86"/>
<path d="M265.044 44.5087H266.197V54H265.044V44.5087ZM265.682 45.5934V44.5087H267.621C268.235 44.5087 268.782 44.6262 269.261 44.8612C269.749 45.0872 270.133 45.4126 270.414 45.8375C270.703 46.2623 270.848 46.7685 270.848 47.3561C270.848 47.9346 270.703 48.4408 270.414 48.8747C270.133 49.2995 269.749 49.6295 269.261 49.8645C268.782 50.0905 268.235 50.2035 267.621 50.2035H265.682V49.1187H267.621C268.235 49.1187 268.732 48.9696 269.112 48.6713C269.501 48.373 269.695 47.9346 269.695 47.3561C269.695 46.7685 269.501 46.3301 269.112 46.0408C268.732 45.7425 268.235 45.5934 267.621 45.5934H265.682ZM273.11 54V52.9153H277.896V54H273.11ZM273.11 45.5934V44.5087H277.896V45.5934H273.11ZM273.11 49.3899V48.3052H277.625V49.3899H273.11ZM272.473 44.5087H273.625V54H272.473V44.5087ZM287.114 44.5087H288.266V54.4746L281.08 46.9357V54H279.927V44.0341L287.114 51.5729V44.5087ZM291.078 49.3899V48.3052H297.587V49.3899H291.078ZM296.814 44.5087H297.966V54H296.814V44.5087ZM290.441 44.5087H291.594V54H290.441V44.5087ZM301.042 51.1526L301.449 50.0679H305.652L306.059 51.1526H301.042ZM303.523 46.651L301.923 50.4204L301.815 50.6645L300.405 54H299.117L303.523 44.0341L307.93 54H306.642L305.259 50.7458L305.15 50.4747L303.523 46.651Z" fill="#FDFDFD"/>
<path d="M297.845 25.3511L300.423 21.9306L302.182 23.2771L299.604 26.6993L297.845 25.3511ZM297.317 24.957L300.059 21.3177L298.212 19.9053L295.47 23.5447L297.317 24.957ZM296.189 20.9132L295.397 22.5497L297.736 19.4479L295.992 18.1121L294.504 20.0852L296.189 20.9132ZM295.338 17.8843L293.424 16.419L291.7 18.7064L293.903 19.7887L295.338 17.8843ZM299.729 27.6245L294.024 23.3768L293.617 23.4144L293.804 23.4971L296.356 29.2221L295.678 29.3151L293.31 24.0008L291.669 23.2688L291.504 21.9934L293.122 22.7966L294.614 22.6588L295.312 21.2184L290.76 18.9814L287.449 23.6344L291.598 29.9408L290.666 35.9631H298.304V31.014L299.753 28.9905L300.192 27.0087L299.729 27.6245Z" fill="#CA2197"/>
</svg>
