<svg width="88" height="88" viewBox="0 0 88 88" fill="none" xmlns="http://www.w3.org/2000/svg">
<path d="M14.6667 66C13.6278 66 12.7576 65.648 12.056 64.944C11.3545 64.24 11.0025 63.3698 11 62.3333C10.9976 61.2969 11.3496 60.4267 12.056 59.7227C12.7625 59.0187 13.6327 58.6667 14.6667 58.6667H73.3333C74.3722 58.6667 75.2437 59.0187 75.9477 59.7227C76.6517 60.4267 77.0025 61.2969 77 62.3333C76.9976 63.3698 76.6456 64.2412 75.944 64.9477C75.2425 65.6541 74.3722 66.0049 73.3333 66H14.6667ZM14.6667 47.6667C13.6278 47.6667 12.7576 47.3147 12.056 46.6107C11.3545 45.9067 11.0025 45.0364 11 44C10.9976 42.9636 11.3496 42.0933 12.056 41.3893C12.7625 40.6853 13.6327 40.3333 14.6667 40.3333H73.3333C74.3722 40.3333 75.2437 40.6853 75.9477 41.3893C76.6517 42.0933 77.0025 42.9636 77 44C76.9976 45.0364 76.6456 45.9079 75.944 46.6143C75.2425 47.3208 74.3722 47.6716 73.3333 47.6667H14.6667ZM14.6667 29.3333C13.6278 29.3333 12.7576 28.9813 12.056 28.2773C11.3545 27.5733 11.0025 26.7031 11 25.6667C10.9976 24.6302 11.3496 23.76 12.056 23.056C12.7625 22.352 13.6327 22 14.6667 22H73.3333C74.3722 22 75.2437 22.352 75.9477 23.056C76.6517 23.76 77.0025 24.6302 77 25.6667C76.9976 26.7031 76.6456 27.5746 75.944 28.281C75.2425 28.9874 74.3722 29.3382 73.3333 29.3333H14.6667Z" fill="#FDFDFD"/>
</svg>
