<svg width="75" height="108" viewBox="0 0 75 108" fill="none" xmlns="http://www.w3.org/2000/svg">
<g clip-path="url(#clip0_101_13)">
<rect width="74.5554" height="74.5554" rx="37.2777" fill="#222222"/>
<path d="M46.5237 41.8205L54.3925 31.4619L59.7603 35.5397L51.8915 45.9033L46.5237 41.8205ZM44.9131 40.627L53.2804 29.6058L47.6446 25.3289L39.2773 36.35L44.9131 40.627ZM41.4715 28.381L39.0544 33.3367L46.1931 23.9437L40.8691 19.8985L36.3304 25.8737L41.4715 28.381ZM38.874 19.2084L33.0328 14.7711L27.7728 21.6982L34.4944 24.9757L38.874 19.2084ZM52.2747 48.705L34.8664 35.8415L33.624 35.9555L34.1951 36.206L41.98 53.543L39.911 53.8248L32.6872 37.7314L27.6776 35.5147L27.1766 31.6523L32.1123 34.0844L36.6661 33.6674L38.7951 29.3053L24.906 22.531L14.8016 36.6218L27.4622 55.7197L24.6192 73.9571H47.9264V58.9696L52.3461 52.8416L53.6874 46.8401L52.2747 48.705Z" fill="#F2F2F2"/>
</g>
<rect x="5.21931" y="5.21931" width="64.1167" height="64.1167" rx="32.0584" stroke="#CA2198" stroke-width="10.4386"/>
<path d="M37.0544 67.8588V107.369" stroke="#CA2198" stroke-width="11.9298"/>
<path d="M56.8116 87.5021L17.3018 87.5021" stroke="#CA2198" stroke-width="11.9298"/>
<defs>
<clipPath id="clip0_101_13">
<rect width="74.5554" height="74.5554" rx="37.2777" fill="white"/>
</clipPath>
</defs>
</svg>
