<svg width="151" height="218" viewBox="0 0 151 218" fill="none" xmlns="http://www.w3.org/2000/svg">
<g clip-path="url(#clip0_151_2)">
<rect width="151" height="151" rx="75.5" fill="#CA2197"/>
<path d="M94.226 84.7008L110.163 63.7211L121.035 71.98L105.098 92.9699L94.226 84.7008ZM90.964 82.2835L107.911 59.9619L96.4962 51.2996L79.5496 73.6212L90.964 82.2835ZM83.9936 57.4812L79.0981 67.5183L93.5564 48.4942L82.7735 40.3012L73.5811 52.403L83.9936 57.4812ZM78.7328 38.9036L66.9024 29.9166L56.249 43.9462L69.8626 50.5843L78.7328 38.9036ZM105.874 98.6441L70.6159 72.5913L68.0997 72.8222L69.2563 73.3295L85.0235 108.443L80.8331 109.013L66.2023 76.419L56.0562 71.9293L55.0416 64.1066L65.0381 69.0326L74.2609 68.1879L78.573 59.3531L50.4428 45.633L29.978 74.1716L55.6199 112.851L49.862 149.788H97.0669V119.434L106.018 107.022L108.735 94.8672L105.874 98.6441Z" fill="#FDFDFD"/>
</g>
<rect x="10.5709" y="10.5709" width="129.858" height="129.858" rx="64.9291" stroke="#CA2198" stroke-width="21.1418"/>
<path d="M75.0479 137.437V217.458" stroke="#CA2198" stroke-width="24.162"/>
<path d="M115.063 177.222L35.0418 177.222" stroke="#CA2198" stroke-width="24.162"/>
<defs>
<clipPath id="clip0_151_2">
<rect width="151" height="151" rx="75.5" fill="white"/>
</clipPath>
</defs>
</svg>
